<svg width="120" height="15" xmlns="http://www.w3.org/2000/svg"><path d="M.734 13.026V6.43h.712l.088.342c.313-.287.732-.43 1.257-.43.445 0 .79.082 1.037.246.457.308.685.904.685 1.788v.677c0 .654-.114 1.138-.343 1.455a1.3 1.3 0 0 1-.549.444c-.22.093-.495.14-.826.14a1.85 1.85 0 0 1-1.147-.364v2.298H.734zm2.87-4.03v-.558c0-.463-.08-.805-.238-1.026-.158-.221-.403-.332-.734-.332-.656 0-.984.409-.984 1.226v.822c0 .814.328 1.222.984 1.222.381 0 .65-.15.805-.449.11-.216.167-.518.167-.905zm2.07.07v-.698c0-.65.127-1.133.382-1.446.313-.387.829-.58 1.547-.58.776 0 1.316.227 1.621.68.205.309.308.757.308 1.346v.698c0 .65-.128 1.133-.383 1.446-.316.387-.832.58-1.546.58-.777 0-1.317-.227-1.622-.68-.205-.308-.308-.757-.308-1.346zm2.94-.061v-.58c0-.466-.081-.807-.242-1.022-.162-.215-.42-.323-.774-.323-.41 0-.691.148-.844.444-.11.21-.167.511-.167.9v.58c0 .467.082.807.244 1.023.163.215.419.323.767.323.413 0 .696-.147.848-.44.112-.214.167-.515.167-.905zM11.79 11l-1.385-4.57h.932l.883 3.401 1.06-3.401h.64l1.06 3.401.883-3.401h.932L15.412 11h-.765l-1.046-3.173L12.555 11h-.764zm6.798-2.074v.167c0 .846.376 1.27 1.13 1.27.228 0 .419-.036.573-.108.154-.072.292-.19.415-.354l.681.405a1.617 1.617 0 0 1-.694.604c-.276.121-.631.182-1.068.182-.782 0-1.33-.241-1.644-.725-.21-.328-.316-.811-.316-1.45v-.356c0-.715.125-1.242.374-1.582.16-.226.361-.387.602-.483.249-.103.56-.154.931-.154.668 0 1.153.176 1.455.527.302.352.452.916.452 1.692v.365H18.59zm-.005-.655h2.026v-.084c0-.369-.086-.65-.259-.843-.173-.194-.423-.29-.751-.29-.399 0-.677.133-.835.4-.12.199-.18.443-.18.734v.083zM22.73 11V6.43h.707l.101.382c.14-.17.288-.29.442-.363.154-.071.346-.107.578-.107.301 0 .612.085.931.255l-.39.764c-.226-.152-.436-.228-.63-.228-.29 0-.5.13-.63.389s-.195.679-.195 1.259V11h-.914zm4.218-2.074v.167c0 .846.377 1.27 1.13 1.27.228 0 .42-.036.573-.108.154-.072.292-.19.415-.354l.682.405a1.617 1.617 0 0 1-.695.604c-.275.121-.631.182-1.068.182-.782 0-1.33-.241-1.643-.725-.211-.328-.317-.811-.317-1.45v-.356c0-.715.125-1.242.374-1.582.161-.226.362-.387.602-.483.249-.103.56-.154.932-.154.668 0 1.152.176 1.454.527.302.352.453.916.453 1.692v.365h-2.892zm-.004-.655h2.026v-.084c0-.369-.087-.65-.26-.843-.172-.194-.423-.29-.751-.29-.398 0-.677.133-.835.4-.12.199-.18.443-.18.734v.083zM34.005 11l-.057-.356-.172.154c-.093.088-.243.159-.448.213a2.536 2.536 0 0 1-.65.081c-.457 0-.809-.083-1.055-.25-.293-.196-.49-.498-.593-.905a3.616 3.616 0 0 1-.093-.884v-.677c0-.65.115-1.135.343-1.454.282-.387.737-.58 1.367-.58.346 0 .646.063.9.189l.056.036c.044.03.11.08.2.148v-2.14h.914V11h-.712zm-2.158-2.562v.558c0 .463.08.804.237 1.024.159.22.402.33.73.33.66 0 .989-.408.989-1.222v-.822c0-.817-.33-1.226-.989-1.226-.378 0-.645.15-.8.448-.111.214-.167.517-.167.91zM37.987 11V4.575h.913v2.14c.176-.137.35-.234.521-.29.172-.055.377-.083.618-.083.448 0 .795.083 1.041.25.457.305.686.9.686 1.784v.677c0 .654-.115 1.138-.343 1.455a1.27 1.27 0 0 1-.552.446c-.22.092-.501.138-.841.138-.428 0-.765-.077-1.011-.233l-.067-.049a5.917 5.917 0 0 1-.197-.166l-.057.356h-.712zm2.869-2.004v-.558c0-.463-.08-.805-.237-1.026-.159-.221-.403-.332-.734-.332-.656 0-.985.409-.985 1.226v.822c0 .814.329 1.222.985 1.222.38 0 .649-.15.804-.449.111-.216.167-.518.167-.905zm3.274 1.96L42.508 6.43h.928l1.173 3.528L45.68 6.43h.932l-1.727 5.141c-.132.399-.267.702-.405.91-.137.208-.293.35-.465.426-.252.109-.645.163-1.178.163v-.752c.354 0 .598-.049.732-.147.133-.098.26-.324.38-.679l.18-.536zm6.782-9.95h.834v8.032c0 .479.082.806.246.981.164.176.47.263.916.263h.417V11h-.444c-.766 0-1.285-.141-1.559-.424-.273-.282-.41-.818-.41-1.606V1.006zM54.68 8.06V6.98c0-2.047.936-3.07 2.81-3.07 1.877 0 2.816 1.023 2.816 3.07v1.08c0 2.041-.946 3.062-2.837 3.062-1.86 0-2.79-1.02-2.79-3.062zm4.785-.035V7.021c0-1.6-.659-2.399-1.976-2.399s-1.975.8-1.975 2.4v1.004c0 1.59.658 2.386 1.975 2.386 1.317 0 1.976-.795 1.976-2.386zm3.22-7.02h.834v8.032c0 .479.082.806.246.981.164.176.47.263.916.263h.417V11h-.445c-.765 0-1.285-.141-1.558-.424-.274-.282-.41-.818-.41-1.606V1.006zm3.985 0h.834v8.032c0 .479.082.806.246.981.164.176.47.263.916.263h.417V11h-.444c-.766 0-1.285-.141-1.559-.424-.273-.282-.41-.818-.41-1.606V1.006zm3.992 1.32V.978h.834v1.346h-.834zm0 8.674V4.034h.834V11h-.834zm3.473 3.151V4.034h.67l.089.834c.455-.638 1.166-.957 2.132-.957 1.021 0 1.744.351 2.167 1.053.292.478.438 1.153.438 2.023v1.06c0 2.05-.866 3.076-2.598 3.076-.907 0-1.595-.298-2.064-.895v3.923h-.834zm4.662-6.138v-.985c0-1.604-.631-2.406-1.894-2.406-1.29 0-1.934.795-1.934 2.386v1.018c0 1.59.645 2.386 1.934 2.386 1.263 0 1.894-.8 1.894-2.4zm2.994.048V6.98c0-2.047.937-3.07 2.81-3.07 1.877 0 2.816 1.023 2.816 3.07v1.08c0 2.041-.946 3.062-2.837 3.062-1.86 0-2.789-1.02-2.789-3.062zm4.785-.035V7.021c0-1.6-.658-2.399-1.975-2.399-1.317 0-1.976.8-1.976 2.4v1.004c0 1.59.659 2.386 1.976 2.386s1.975-.795 1.975-2.386zm3.247 6.125V4.034h.67l.09.834c.455-.638 1.166-.957 2.132-.957 1.02 0 1.743.351 2.167 1.053.292.478.437 1.153.437 2.023v1.06c0 2.05-.866 3.076-2.597 3.076-.907 0-1.595-.298-2.065-.895v3.923h-.834zm4.662-6.138v-.985c0-1.604-.63-2.406-1.893-2.406-1.29 0-1.935.795-1.935 2.386v1.018c0 1.59.645 2.386 1.935 2.386 1.262 0 1.893-.8 1.893-2.4zM97.91 11V9.776h.868V11h-.868zm3.46-2.94V6.98c0-2.046.936-3.069 2.809-3.069 1.877 0 2.816 1.023 2.816 3.07v1.08c0 2.041-.945 3.062-2.837 3.062-1.86 0-2.789-1.02-2.789-3.062zm4.784-.034V7.021c0-1.6-.658-2.399-1.975-2.399-1.317 0-1.976.8-1.976 2.4v1.004c0 1.59.659 2.386 1.976 2.386s1.975-.795 1.975-2.386zM109.4 11V4.034h.663l.076.944c.382-.711 1.062-1.067 2.037-1.067 1.194 0 1.964.449 2.31 1.347.146.378.22.957.22 1.736V11h-.842V7.07c0-.666-.07-1.165-.212-1.498-.273-.624-.79-.936-1.551-.936-.57 0-.998.164-1.286.492-.21.237-.358.534-.447.892-.09.358-.134.844-.134 1.46V11h-.834zm7.862-9.994h.834v8.032c0 .479.082.806.246.981.164.176.47.263.916.263h.417V11h-.445c-.765 0-1.285-.141-1.558-.424-.274-.282-.41-.818-.41-1.606V1.006z" fill="#EEE" fill-rule="nonzero"/></svg>
