<svg width="163" height="18" xmlns="http://www.w3.org/2000/svg"><path d="M.441 13V.15h4.492c.832 0 1.514.07 2.047.207a3.798 3.798 0 0 1 1.416.69c.544.428.93.952 1.155 1.573.226.621.339 1.47.339 2.549v2.804c0 .756-.043 1.356-.128 1.801a4.369 4.369 0 0 1-.444 1.257 3.363 3.363 0 0 1-1.612 1.499c-.7.313-1.625.47-2.773.47H.44zm2.769-2.206h1.204c1.066 0 1.775-.202 2.127-.607.387-.439.58-1.248.58-2.425V5.389c0-1.178-.193-1.987-.58-2.426-.352-.404-1.06-.607-2.127-.607H3.21v8.438zm9.061-8.315V.01h2.62v2.47h-2.62zm0 10.521V3.666h2.62V13h-2.62zm5.063 0V3.666h1.995l.334.589c.31-.299.595-.505.853-.62.257-.114.57-.171.94-.171.639 0 1.33.205 2.074.615l-1.125 2.162c-.445-.351-.855-.527-1.23-.527-.428 0-.738.22-.932.659-.193.44-.29 1.151-.29 2.136V13h-2.619zm9.536-3.999v.228c0 1.307.58 1.96 1.74 1.96.428 0 .781-.076 1.06-.228.278-.152.531-.407.76-.765l1.933 1.09c-.398.686-.91 1.176-1.533 1.472-.624.296-1.464.444-2.518.444-1.067 0-1.893-.179-2.479-.536-.691-.422-1.154-1.078-1.389-1.969-.14-.533-.21-1.198-.21-1.995v-.598c0-1.535.257-2.648.773-3.34.34-.456.767-.785 1.283-.984.55-.21 1.23-.316 2.04-.316 1.458 0 2.504.359 3.137 1.077.633.717.949 1.905.949 3.563v.897H26.87zm-.017-1.775h3.093v-.229c0-.521-.134-.923-.404-1.204-.27-.281-.653-.422-1.151-.422-.569 0-.982.188-1.24.563-.199.298-.298.659-.298 1.08v.212zm12.981 2.97l1.934 1.081c-.75 1.284-1.98 1.925-3.692 1.925-1.54 0-2.637-.51-3.287-1.53-.434-.685-.65-1.71-.65-3.075v-.484c0-1.517.27-2.63.808-3.34.662-.873 1.679-1.31 3.05-1.31 1.705 0 2.91.642 3.612 1.926l-1.933 1.09c-.211-.34-.43-.58-.655-.721-.226-.14-.505-.211-.84-.211-.603 0-1.01.284-1.221.852-.135.37-.202.859-.202 1.468v.985c0 .767.124 1.337.373 1.709.25.372.629.558 1.139.558.644 0 1.166-.307 1.564-.923zm3.454-4.456h-1.02V3.666h1.02l.158-2.61h2.461v2.61h1.864V5.74h-1.864v3.261c0 .738.112 1.236.334 1.494.223.258.65.387 1.283.387h.22V13h-.316c-.897 0-1.601-.057-2.114-.171-.513-.115-.913-.307-1.2-.576-.299-.281-.511-.687-.637-1.217s-.189-1.297-.189-2.299V5.74zm5.836 3.287V7.63c0-1.371.26-2.37.782-2.997.65-.78 1.761-1.17 3.331-1.17 1.46 0 2.508.325 3.147.972.638.648.958 1.712.958 3.195v1.397c0 1.377-.26 2.38-.782 3.006-.65.78-1.761 1.17-3.331 1.17-1.46 0-2.508-.325-3.147-.972-.639-.648-.958-1.715-.958-3.204zm5.599-.193v-1.01c0-.827-.113-1.413-.339-1.759-.225-.345-.608-.518-1.147-.518-.644 0-1.069.24-1.274.72-.147.352-.22.87-.22 1.556v1.011c0 .832.113 1.42.339 1.767.225.345.61.518 1.155.518.639 0 1.06-.24 1.266-.72.146-.352.22-.874.22-1.565zM59.478 13V3.666h1.995l.334.589c.31-.299.594-.505.852-.62.258-.114.571-.171.94-.171.64 0 1.33.205 2.075.615l-1.125 2.162c-.445-.351-.856-.527-1.23-.527-.428 0-.739.22-.932.659-.194.44-.29 1.151-.29 2.136V13h-2.62zm9.228-.237L65.63 3.666h2.645l1.81 6.284L71.8 3.666h2.663l-3.243 9.835c-.334 1.031-.698 1.84-1.09 2.426-.229.357-.52.622-.875.795-.354.173-.833.289-1.437.347-.474.047-.996.07-1.564.07v-2.118c.668 0 1.13-.064 1.389-.193.316-.158.612-.665.887-1.52l.176-.545zm9.589.237V2.4h-3.41V.15h9.589V2.4h-3.41V13h-2.77zm7.594 0V3.666h1.995l.334.589c.31-.299.594-.505.852-.62.258-.114.572-.171.94-.171.64 0 1.33.205 2.075.615L90.96 6.241c-.445-.351-.856-.527-1.23-.527-.428 0-.739.22-.932.659-.194.44-.29 1.151-.29 2.136V13h-2.62zm9.536-3.999v.228c0 1.307.58 1.96 1.74 1.96.428 0 .78-.076 1.06-.228.277-.152.53-.407.76-.765l1.933 1.09c-.398.686-.91 1.176-1.534 1.472-.624.296-1.463.444-2.518.444-1.066 0-1.892-.179-2.478-.536-.692-.422-1.155-1.078-1.389-1.969-.14-.533-.21-1.198-.21-1.995v-.598c0-1.535.257-2.648.773-3.34.34-.456.767-.785 1.283-.984.55-.21 1.23-.316 2.039-.316 1.459 0 2.505.359 3.137 1.077.633.717.95 1.905.95 3.563v.897h-5.546zm-.018-1.775h3.094v-.229c0-.521-.135-.923-.404-1.204-.27-.281-.654-.422-1.152-.422-.568 0-.981.188-1.239.563-.2.298-.299.659-.299 1.08v.212zM105.33 9v.228c0 1.307.58 1.96 1.74 1.96.428 0 .781-.076 1.06-.228.278-.152.531-.407.76-.765l1.933 1.09c-.398.686-.91 1.176-1.533 1.472-.624.296-1.464.444-2.519.444-1.066 0-1.892-.179-2.478-.536-.691-.422-1.154-1.078-1.389-1.969-.14-.533-.21-1.198-.21-1.995v-.598c0-1.535.257-2.648.773-3.34.34-.456.767-.785 1.283-.984.55-.21 1.23-.316 2.04-.316 1.458 0 2.504.359 3.137 1.077.633.717.949 1.905.949 3.563v.897h-5.546zm-.017-1.775h3.093v-.229c0-.521-.135-.923-.404-1.204-.27-.281-.653-.422-1.151-.422-.569 0-.982.188-1.24.563-.199.298-.299.659-.299 1.08v.212zM117.273 13V.15h7.33v.958h-6.222v4.905h5.308v.958h-5.308v5.071h6.214V13h-7.322zm15.979 0l-.08-1.063-.045.048-.033.04c-.258.31-.495.533-.712.667-.522.31-1.172.466-1.951.466-.862 0-1.536-.167-2.022-.5-.902-.628-1.353-1.78-1.353-3.455V7.841c0-1.23.231-2.162.694-2.795.562-.774 1.447-1.16 2.654-1.16.627 0 1.141.09 1.543.268.401.179.766.485 1.094.918V.15h1.081V13h-.87zm-5.124-5.106v1.265c0 2.057.811 3.085 2.434 3.085 1.653 0 2.479-1.022 2.479-3.067v-1.31c0-2.045-.826-3.067-2.479-3.067-1.623 0-2.434 1.031-2.434 3.094zm9.378-6.047V.115h1.072v1.732h-1.072zm0 11.153V4.044h1.072V13h-1.072zm4.772-8.05h-1.116v-.906h1.116l.035-2.97h1.038v2.97h1.757v.905h-1.757v5.529c0 .615.106 1.035.32 1.26.214.226.608.34 1.182.34h.334V13h-.325c-1.025 0-1.712-.177-2.06-.532-.35-.354-.524-1.05-.524-2.087V4.949zm5.3 4.27V7.833c0-2.63 1.204-3.946 3.612-3.946 2.414 0 3.621 1.315 3.621 3.946v1.389c0 2.625-1.215 3.937-3.647 3.937-2.39 0-3.586-1.312-3.586-3.937zm6.152-.043V7.885c0-2.057-.846-3.085-2.54-3.085-1.693 0-2.54 1.028-2.54 3.085v1.292c0 2.045.847 3.067 2.54 3.067 1.694 0 2.54-1.022 2.54-3.067zM157.906 13V4.044h.862l.096 1.16c.24-.457.544-.79.91-1.002.366-.21.825-.316 1.375-.316.557 0 1.099.14 1.626.422l-.448.922c-.44-.257-.867-.386-1.283-.386-.72 0-1.245.297-1.573.892-.328.595-.492 1.554-.492 2.878V13h-1.073z" fill="#EEE" fill-rule="nonzero"/></svg>
